<svg width="2015" height="2306" viewBox="0 0 2015 2306" fill="none" xmlns="http://www.w3.org/2000/svg">
    <rect width="2015" height="2306" fill="#D1D5DB" />
    <path
        d="M808.682 1027.59H789.625C788.892 1023.52 787.528 1019.93 785.533 1016.84C783.538 1013.74 781.095 1011.12 778.203 1008.96C775.312 1006.8 772.075 1005.17 768.492 1004.07C764.949 1002.97 761.183 1002.42 757.192 1002.42C749.985 1002.42 743.531 1004.24 737.83 1007.86C732.17 1011.48 727.691 1016.8 724.392 1023.8C721.135 1030.8 719.506 1039.36 719.506 1049.45C719.506 1059.63 721.135 1068.23 724.392 1075.23C727.691 1082.23 732.19 1087.53 737.891 1091.11C743.592 1094.69 750.005 1096.49 757.131 1096.49C761.081 1096.49 764.827 1095.96 768.37 1094.9C771.953 1093.8 775.19 1092.19 778.081 1090.07C780.972 1087.96 783.416 1085.37 785.411 1082.32C787.447 1079.22 788.852 1075.68 789.625 1071.69L808.682 1071.75C807.664 1077.9 805.689 1083.56 802.757 1088.73C799.866 1093.86 796.141 1098.3 791.58 1102.04C787.06 1105.75 781.889 1108.62 776.066 1110.66C770.243 1112.69 763.891 1113.71 757.009 1113.71C746.177 1113.71 736.527 1111.14 728.057 1106.01C719.587 1100.84 712.909 1093.45 708.023 1083.84C703.177 1074.23 700.755 1062.77 700.755 1049.45C700.755 1036.1 703.198 1024.64 708.084 1015.07C712.971 1005.46 719.649 998.087 728.118 992.956C736.588 987.785 746.218 985.199 757.009 985.199C763.646 985.199 769.836 986.156 775.577 988.07C781.359 989.943 786.551 992.712 791.152 996.376C795.754 1000 799.561 1004.44 802.574 1009.69C805.587 1014.9 807.623 1020.87 808.682 1027.59ZM869.319 1113.89C860.523 1113.89 852.848 1111.88 846.292 1107.85C839.736 1103.82 834.646 1098.18 831.022 1090.93C827.398 1083.68 825.586 1075.21 825.586 1065.52C825.586 1055.79 827.398 1047.28 831.022 1039.99C834.646 1032.7 839.736 1027.04 846.292 1023.01C852.848 1018.98 860.523 1016.96 869.319 1016.96C878.114 1016.96 885.79 1018.98 892.346 1023.01C898.902 1027.04 903.992 1032.7 907.616 1039.99C911.24 1047.28 913.052 1055.79 913.052 1065.52C913.052 1075.21 911.24 1083.68 907.616 1090.93C903.992 1098.18 898.902 1103.82 892.346 1107.85C885.79 1111.88 878.114 1113.89 869.319 1113.89ZM869.38 1098.56C875.081 1098.56 879.804 1097.06 883.55 1094.04C887.297 1091.03 890.066 1087.02 891.857 1082.01C893.69 1077 894.606 1071.48 894.606 1065.46C894.606 1059.47 893.69 1053.97 891.857 1048.97C890.066 1043.92 887.297 1039.87 883.55 1036.81C879.804 1033.76 875.081 1032.23 869.38 1032.23C863.638 1032.23 858.874 1033.76 855.087 1036.81C851.341 1039.87 848.552 1043.92 846.719 1048.97C844.928 1053.97 844.032 1059.47 844.032 1065.46C844.032 1071.48 844.928 1077 846.719 1082.01C848.552 1087.02 851.341 1091.03 855.087 1094.04C858.874 1097.06 863.638 1098.56 869.38 1098.56ZM933.437 1112V1018.18H950.967V1033.45H952.127C954.082 1028.28 957.279 1024.25 961.717 1021.36C966.155 1018.43 971.469 1016.96 977.659 1016.96C983.93 1016.96 989.182 1018.43 993.417 1021.36C997.693 1024.29 1000.85 1028.32 1002.88 1033.45H1003.86C1006.1 1028.44 1009.66 1024.45 1014.55 1021.48C1019.44 1018.47 1025.26 1016.96 1032.02 1016.96C1040.53 1016.96 1047.47 1019.63 1052.85 1024.96C1058.26 1030.3 1060.97 1038.34 1060.97 1049.09V1112H1042.71V1050.8C1042.71 1044.45 1040.98 1039.84 1037.52 1036.99C1034.06 1034.14 1029.92 1032.72 1025.12 1032.72C1019.17 1032.72 1014.55 1034.55 1011.25 1038.22C1007.95 1041.84 1006.31 1046.5 1006.31 1052.2V1112H988.103V1049.64C988.103 1044.55 986.515 1040.46 983.339 1037.36C980.163 1034.27 976.03 1032.72 970.94 1032.72C967.479 1032.72 964.282 1033.63 961.35 1035.47C958.459 1037.26 956.118 1039.76 954.326 1042.98C952.575 1046.2 951.7 1049.92 951.7 1054.16V1112H933.437ZM1085.45 1112V1018.18H1103.71V1112H1085.45ZM1094.67 1003.71C1091.5 1003.71 1088.77 1002.65 1086.49 1000.53C1084.25 998.372 1083.13 995.806 1083.13 992.834C1083.13 989.821 1084.25 987.255 1086.49 985.138C1088.77 982.98 1091.5 981.901 1094.67 981.901C1097.85 981.901 1100.56 982.98 1102.8 985.138C1105.08 987.255 1106.22 989.821 1106.22 992.834C1106.22 995.806 1105.08 998.372 1102.8 1000.53C1100.56 1002.65 1097.85 1003.71 1094.67 1003.71ZM1146.54 1056.3V1112H1128.28V1018.18H1145.81V1033.45H1146.97C1149.13 1028.48 1152.51 1024.49 1157.11 1021.48C1161.75 1018.47 1167.6 1016.96 1174.64 1016.96C1181.03 1016.96 1186.63 1018.3 1191.44 1020.99C1196.24 1023.64 1199.97 1027.59 1202.61 1032.84C1205.26 1038.09 1206.58 1044.59 1206.58 1052.33V1112H1188.32V1054.52C1188.32 1047.72 1186.55 1042.41 1183.01 1038.58C1179.47 1034.71 1174.6 1032.78 1168.41 1032.78C1164.18 1032.78 1160.41 1033.7 1157.11 1035.53C1153.85 1037.36 1151.27 1040.05 1149.35 1043.59C1147.48 1047.09 1146.54 1051.33 1146.54 1056.3ZM1270.41 1149.14C1262.96 1149.14 1256.55 1148.16 1251.17 1146.2C1245.84 1144.25 1241.48 1141.66 1238.1 1138.45C1234.72 1135.23 1232.2 1131.71 1230.53 1127.88L1246.23 1121.41C1247.32 1123.2 1248.79 1125.09 1250.62 1127.09C1252.5 1129.12 1255.02 1130.85 1258.2 1132.28C1261.41 1133.7 1265.55 1134.42 1270.6 1134.42C1277.52 1134.42 1283.24 1132.73 1287.76 1129.35C1292.28 1126.01 1294.54 1120.67 1294.54 1113.34V1094.9H1293.38C1292.28 1096.89 1290.69 1099.11 1288.61 1101.56C1286.58 1104 1283.77 1106.12 1280.19 1107.91C1276.6 1109.7 1271.94 1110.6 1266.2 1110.6C1258.79 1110.6 1252.11 1108.86 1246.16 1105.4C1240.26 1101.9 1235.58 1096.75 1232.12 1089.95C1228.7 1083.11 1226.99 1074.7 1226.99 1064.72C1226.99 1054.75 1228.68 1046.2 1232.06 1039.07C1235.48 1031.95 1240.16 1026.49 1246.1 1022.7C1252.05 1018.87 1258.79 1016.96 1266.32 1016.96C1272.14 1016.96 1276.85 1017.94 1280.43 1019.89C1284.01 1021.81 1286.8 1024.05 1288.8 1026.61C1290.83 1029.18 1292.4 1031.44 1293.5 1033.39H1294.84V1018.18H1312.74V1114.08C1312.74 1122.14 1310.87 1128.76 1307.12 1133.93C1303.38 1139.1 1298.31 1142.93 1291.91 1145.41C1285.56 1147.89 1278.39 1149.14 1270.41 1149.14ZM1270.23 1095.45C1275.48 1095.45 1279.92 1094.23 1283.55 1091.78C1287.21 1089.3 1289.98 1085.76 1291.85 1081.15C1293.77 1076.51 1294.72 1070.95 1294.72 1064.48C1294.72 1058.17 1293.79 1052.61 1291.91 1047.81C1290.04 1043 1287.29 1039.25 1283.67 1036.57C1280.04 1033.84 1275.56 1032.47 1270.23 1032.47C1264.73 1032.47 1260.15 1033.9 1256.49 1036.75C1252.82 1039.56 1250.05 1043.39 1248.18 1048.23C1246.35 1053.08 1245.43 1058.49 1245.43 1064.48C1245.43 1070.63 1246.37 1076.02 1248.24 1080.67C1250.11 1085.31 1252.88 1088.93 1256.55 1091.54C1260.25 1094.14 1264.81 1095.45 1270.23 1095.45ZM879.588 1227.77C878.936 1221.99 876.249 1217.51 871.525 1214.33C866.802 1211.12 860.857 1209.51 853.69 1209.51C848.559 1209.51 844.121 1210.32 840.375 1211.95C836.629 1213.54 833.717 1215.74 831.64 1218.55C829.604 1221.32 828.586 1224.47 828.586 1228.01C828.586 1230.99 829.279 1233.55 830.663 1235.71C832.088 1237.87 833.941 1239.68 836.221 1241.15C838.542 1242.57 841.026 1243.77 843.673 1244.75C846.32 1245.69 848.865 1246.46 851.308 1247.07L863.524 1250.25C867.515 1251.22 871.607 1252.55 875.801 1254.22C879.995 1255.89 883.884 1258.09 887.467 1260.81C891.05 1263.54 893.942 1266.92 896.14 1270.95C898.38 1274.98 899.5 1279.81 899.5 1285.43C899.5 1292.51 897.667 1298.81 894.003 1304.3C890.379 1309.8 885.105 1314.14 878.183 1317.31C871.301 1320.49 862.974 1322.08 853.202 1322.08C843.836 1322.08 835.733 1320.59 828.892 1317.62C822.051 1314.65 816.696 1310.43 812.828 1304.97C808.96 1299.48 806.822 1292.96 806.415 1285.43H825.349C825.716 1289.95 827.182 1293.72 829.747 1296.73C832.353 1299.7 835.672 1301.92 839.703 1303.39C843.775 1304.81 848.234 1305.52 853.079 1305.52C858.414 1305.52 863.157 1304.69 867.311 1303.02C871.505 1301.31 874.803 1298.95 877.206 1295.93C879.608 1292.88 880.809 1289.32 880.809 1285.25C880.809 1281.54 879.751 1278.51 877.633 1276.14C875.557 1273.78 872.727 1271.83 869.143 1270.28C865.601 1268.73 861.59 1267.37 857.111 1266.19L842.329 1262.16C832.312 1259.43 824.372 1255.42 818.508 1250.12C812.685 1244.83 809.774 1237.83 809.774 1229.11C809.774 1221.91 811.729 1215.62 815.638 1210.24C819.547 1204.87 824.84 1200.69 831.518 1197.72C838.196 1194.71 845.729 1193.2 854.118 1193.2C862.587 1193.2 870.059 1194.69 876.534 1197.66C883.049 1200.63 888.18 1204.72 891.926 1209.93C895.672 1215.11 897.627 1221.05 897.79 1227.77H879.588ZM960.106 1321.89C951.311 1321.89 943.635 1319.88 937.079 1315.85C930.523 1311.82 925.433 1306.18 921.809 1298.93C918.185 1291.68 916.373 1283.21 916.373 1273.52C916.373 1263.79 918.185 1255.28 921.809 1247.99C925.433 1240.7 930.523 1235.04 937.079 1231.01C943.635 1226.98 951.311 1224.96 960.106 1224.96C968.901 1224.96 976.577 1226.98 983.133 1231.01C989.689 1235.04 994.779 1240.7 998.403 1247.99C1002.03 1255.28 1003.84 1263.79 1003.84 1273.52C1003.84 1283.21 1002.03 1291.68 998.403 1298.93C994.779 1306.18 989.689 1311.82 983.133 1315.85C976.577 1319.88 968.901 1321.89 960.106 1321.89ZM960.167 1306.56C965.868 1306.56 970.591 1305.06 974.338 1302.04C978.084 1299.03 980.853 1295.02 982.644 1290.01C984.477 1285 985.393 1279.48 985.393 1273.46C985.393 1267.47 984.477 1261.97 982.644 1256.97C980.853 1251.92 978.084 1247.87 974.338 1244.81C970.591 1241.76 965.868 1240.23 960.167 1240.23C954.426 1240.23 949.661 1241.76 945.874 1244.81C942.128 1247.87 939.339 1251.92 937.507 1256.97C935.715 1261.97 934.819 1267.47 934.819 1273.46C934.819 1279.48 935.715 1285 937.507 1290.01C939.339 1295.02 942.128 1299.03 945.874 1302.04C949.661 1305.06 954.426 1306.56 960.167 1306.56ZM1063.74 1321.89C1054.95 1321.89 1047.27 1319.88 1040.72 1315.85C1034.16 1311.82 1029.07 1306.18 1025.45 1298.93C1021.82 1291.68 1020.01 1283.21 1020.01 1273.52C1020.01 1263.79 1021.82 1255.28 1025.45 1247.99C1029.07 1240.7 1034.16 1235.04 1040.72 1231.01C1047.27 1226.98 1054.95 1224.96 1063.74 1224.96C1072.54 1224.96 1080.21 1226.98 1086.77 1231.01C1093.33 1235.04 1098.42 1240.7 1102.04 1247.99C1105.66 1255.28 1107.48 1263.79 1107.48 1273.52C1107.48 1283.21 1105.66 1291.68 1102.04 1298.93C1098.42 1306.18 1093.33 1311.82 1086.77 1315.85C1080.21 1319.88 1072.54 1321.89 1063.74 1321.89ZM1063.8 1306.56C1069.5 1306.56 1074.23 1305.06 1077.97 1302.04C1081.72 1299.03 1084.49 1295.02 1086.28 1290.01C1088.11 1285 1089.03 1279.48 1089.03 1273.46C1089.03 1267.47 1088.11 1261.97 1086.28 1256.97C1084.49 1251.92 1081.72 1247.87 1077.97 1244.81C1074.23 1241.76 1069.5 1240.23 1063.8 1240.23C1058.06 1240.23 1053.3 1241.76 1049.51 1244.81C1045.76 1247.87 1042.98 1251.92 1041.14 1256.97C1039.35 1261.97 1038.46 1267.47 1038.46 1273.46C1038.46 1279.48 1039.35 1285 1041.14 1290.01C1042.98 1295.02 1045.76 1299.03 1049.51 1302.04C1053.3 1305.06 1058.06 1306.56 1063.8 1306.56ZM1146.12 1264.3V1320H1127.86V1226.18H1145.39V1241.45H1146.55C1148.71 1236.48 1152.09 1232.49 1156.69 1229.48C1161.33 1226.47 1167.18 1224.96 1174.22 1224.96C1180.61 1224.96 1186.21 1226.3 1191.02 1228.99C1195.82 1231.64 1199.55 1235.59 1202.19 1240.84C1204.84 1246.09 1206.16 1252.59 1206.16 1260.33V1320H1187.9V1262.52C1187.9 1255.72 1186.13 1250.41 1182.59 1246.58C1179.05 1242.71 1174.18 1240.78 1167.99 1240.78C1163.76 1240.78 1159.99 1241.7 1156.69 1243.53C1153.43 1245.36 1150.85 1248.05 1148.93 1251.59C1147.06 1255.09 1146.12 1259.33 1146.12 1264.3Z"
        fill="#303133" />
</svg>