<svg width="200" height="200" viewBox="0 0 200 200" fill="none" xmlns="http://www.w3.org/2000/svg">
<circle cx="100" cy="100" r="100" fill="#1E1E1E"/>
<path d="M44.6519 99.68C44.6519 102.656 44.8919 105.232 45.3719 107.408C45.8679 109.568 46.6039 111.36 47.5799 112.784C48.5559 114.192 49.7799 115.24 51.2519 115.928C52.7239 116.616 54.4439 116.96 56.4119 116.96C59.4679 116.96 61.8439 115.992 63.5399 114.056C65.2519 112.104 66.3719 109.072 66.8999 104.96H89.4839C88.9399 109.68 87.7719 113.92 85.9799 117.68C84.1879 121.44 81.8679 124.64 79.0199 127.28C76.1719 129.904 72.8359 131.92 69.0119 133.328C65.2039 134.736 61.0039 135.44 56.4119 135.44C53.0679 135.44 49.8839 135.064 46.8599 134.312C43.8519 133.56 41.0599 132.472 38.4839 131.048C35.9079 129.624 33.5799 127.88 31.4999 125.816C29.4199 123.736 27.6439 121.368 26.1719 118.712C24.7159 116.056 23.5879 113.136 22.7879 109.952C22.0039 106.768 21.6119 103.344 21.6119 99.68C21.6119 96.016 22.0039 92.592 22.7879 89.408C23.5879 86.224 24.7159 83.304 26.1719 80.648C27.6439 77.992 29.4199 75.632 31.4999 73.568C33.5799 71.488 35.9079 69.736 38.4839 68.312C41.0599 66.888 43.8519 65.8 46.8599 65.048C49.8839 64.296 53.0679 63.92 56.4119 63.92C61.0039 63.92 65.2039 64.624 69.0119 66.032C72.8359 67.44 76.1719 69.464 79.0199 72.104C81.8679 74.728 84.1879 77.92 85.9799 81.68C87.7719 85.44 88.9399 89.68 89.4839 94.4H66.8999C66.3719 90.288 65.2519 87.264 63.5399 85.328C61.8439 83.376 59.4679 82.4 56.4119 82.4C54.4439 82.4 52.7239 82.744 51.2519 83.432C49.7799 84.104 48.5559 85.152 47.5799 86.576C46.6039 87.984 45.8679 89.776 45.3719 91.952C44.8919 94.128 44.6519 96.704 44.6519 99.68ZM177.641 65.36V134H154.841V84.44L144.857 134H124.697L114.713 84.368V134H93.1131V65.36H128.273L136.241 107L144.161 65.36H177.641Z" fill="white"/>
</svg>
