<svg xmlns="http://www.w3.org/2000/svg" id="canvas" viewBox="287.869 327.207 1305.567 297.538">
    <path
        d="M 400.44,337.42 C 400.17 335.92, 399.24 334.75, 397.34 333.39 C 395.44 332.02, 393.96 331.17, 390.93 330.60 C 387.91 330.03, 385.90 330.14, 382.22 330.55 C 378.54 330.96, 376.59 331.45, 372.52 332.66 C 368.46 333.86, 366.30 334.63, 361.90 336.59 C 357.50 338.54, 355.18 339.73, 350.53 342.43 C 345.89 345.14, 343.35 346.67, 338.68 350.12 C 334.01 353.57, 331.61 355.50, 327.17 359.68 C 322.73 363.86, 320.55 366.21, 316.49 371.02 C 312.43 375.83, 310.33 378.46, 306.87 383.74 C 303.41 389.02, 301.81 391.86, 299.19 397.40 C 296.58 402.94, 295.42 405.83, 293.80 411.46 C 292.18 417.09, 291.49 419.96, 291.08 425.53 C 290.68 431.10, 290.82 433.98, 291.76 439.32 C 292.71 444.66, 293.49 447.34, 295.80 452.25 C 298.10 457.16, 299.65 459.58, 303.29 463.86 C 306.94 468.15, 309.19 470.14, 314.02 473.66 C 318.84 477.19, 321.55 478.72, 327.42 481.47 C 333.29 484.21, 336.63 485.39, 343.36 487.40 C 350.09 489.41, 353.80 490.15, 361.08 491.51 C 368.36 492.86, 372.81 493.30, 379.77 494.15 C 386.73 495.01, 390.49 495.28, 395.89 495.79 C 401.28 496.30, 403.28 496.62, 406.76 496.71 C 410.23 496.80, 411.40 496.65, 413.27 496.23 C 415.14 495.81, 415.35 495.31, 416.09 494.61 C 416.83 493.90, 416.82 493.31, 416.97 492.73 C 417.12 492.14, 417.29 491.83, 416.86 491.69 C 416.42 491.56, 415.18 491.94, 414.78 492.04 C 414.38 492.14, 414.83 492.30, 414.86 492.20 C 414.90 492.09, 415.36 491.79, 414.94 491.51 C 414.53 491.24, 414.43 490.95, 412.80 490.84 C 411.16 490.72, 410.08 490.85, 406.75 490.95 C 403.42 491.04, 401.47 491.44, 396.16 491.31 C 390.84 491.17, 387.08 490.96, 380.20 490.27 C 373.32 489.58, 368.89 489.16, 361.75 487.86 C 354.60 486.56, 350.98 485.78, 344.46 483.77 C 337.95 481.75, 334.75 480.52, 329.18 477.80 C 323.61 475.08, 321.09 473.54, 316.61 470.17 C 312.13 466.79, 310.11 464.90, 306.79 460.92 C 303.47 456.94, 302.11 454.76, 300.01 450.27 C 297.91 445.79, 297.19 443.39, 296.30 438.51 C 295.40 433.62, 295.21 431.01, 295.54 425.83 C 295.87 420.66, 296.45 417.96, 297.93 412.63 C 299.42 407.30, 300.50 404.50, 302.98 399.17 C 305.46 393.85, 306.99 391.10, 310.33 386.01 C 313.67 380.92, 315.72 378.36, 319.68 373.73 C 323.64 369.10, 325.79 366.83, 330.13 362.87 C 334.48 358.91, 336.82 357.10, 341.40 353.91 C 345.98 350.73, 348.49 349.32, 353.03 346.93 C 357.56 344.54, 359.87 343.50, 364.08 341.97 C 368.29 340.43, 370.41 339.88, 374.09 339.25 C 377.77 338.62, 379.48 338.60, 382.48 338.80 C 385.48 339.00, 386.72 339.79, 389.09 340.25 C 391.46 340.71, 392.42 340.98, 394.34 341.10 C 396.25 341.23, 397.45 341.61, 398.67 340.87 C 399.89 340.14, 400.70 338.92, 400.44 337.42"
        style="stroke: black; fill: black;" />
    <path
        d="M 500.50,429.69 C 500.80 428.23, 500.32 426.84, 499.07 425.08 C 497.82 423.31, 496.75 422.21, 494.23 420.87 C 491.71 419.52, 489.83 418.69, 486.47 418.33 C 483.11 417.97, 481.26 418.49, 477.44 419.07 C 473.63 419.65, 471.56 420.07, 467.40 421.24 C 463.23 422.42, 460.95 423.15, 456.61 424.96 C 452.28 426.77, 449.90 427.87, 445.71 430.29 C 441.51 432.71, 439.38 434.11, 435.63 437.06 C 431.88 440.02, 429.94 441.61, 426.96 445.05 C 423.98 448.49, 422.57 450.43, 420.73 454.28 C 418.89 458.13, 418.15 460.29, 417.75 464.32 C 417.34 468.35, 417.42 470.62, 418.71 474.43 C 420.00 478.24, 421.22 480.27, 424.20 483.38 C 427.18 486.49, 429.25 487.84, 433.61 489.98 C 437.97 492.13, 440.61 492.98, 446.01 494.12 C 451.40 495.26, 454.48 495.57, 460.58 495.70 C 466.68 495.83, 470.13 495.58, 476.53 494.79 C 482.94 494.01, 486.39 493.39, 492.60 491.78 C 498.82 490.18, 502.01 489.07, 507.59 486.77 C 513.17 484.48, 515.88 483.15, 520.49 480.30 C 525.10 477.46, 527.27 475.81, 530.64 472.55 C 534.00 469.29, 535.41 467.60, 537.32 464.02 C 539.24 460.43, 539.84 458.37, 540.20 454.64 C 540.56 450.90, 540.29 448.82, 539.12 445.33 C 537.96 441.84, 536.58 440.10, 534.38 437.18 C 532.17 434.26, 530.72 432.87, 528.09 430.74 C 525.47 428.60, 523.69 427.51, 521.24 426.50 C 518.79 425.50, 517.57 425.70, 515.83 425.70 C 514.10 425.71, 513.35 425.90, 512.57 426.53 C 511.78 427.16, 511.67 427.92, 511.91 428.84 C 512.14 429.77, 512.70 430.06, 513.74 431.13 C 514.78 432.21, 515.28 432.91, 517.10 434.20 C 518.92 435.50, 520.61 436.01, 522.85 437.60 C 525.10 439.18, 526.45 440.08, 528.33 442.14 C 530.20 444.20, 531.20 445.49, 532.24 447.90 C 533.28 450.32, 533.57 451.52, 533.52 454.21 C 533.47 456.91, 533.31 458.44, 531.99 461.37 C 530.68 464.31, 529.73 465.89, 526.93 468.90 C 524.13 471.91, 522.20 473.62, 518.00 476.41 C 513.80 479.20, 511.23 480.57, 505.94 482.84 C 500.65 485.11, 497.55 486.22, 491.57 487.76 C 485.59 489.31, 482.21 489.90, 476.04 490.58 C 469.87 491.25, 466.52 491.42, 460.74 491.15 C 454.96 490.87, 452.05 490.43, 447.15 489.18 C 442.25 487.94, 439.91 486.94, 436.23 484.93 C 432.55 482.91, 431.03 481.63, 428.76 479.12 C 426.49 476.61, 425.80 475.22, 424.87 472.38 C 423.95 469.54, 423.85 468.03, 424.12 464.92 C 424.40 461.82, 424.80 460.07, 426.25 456.84 C 427.69 453.62, 428.78 451.86, 431.35 448.78 C 433.92 445.71, 435.67 444.17, 439.10 441.46 C 442.53 438.75, 444.55 437.40, 448.49 435.22 C 452.43 433.04, 454.72 432.06, 458.81 430.56 C 462.91 429.06, 465.10 428.47, 468.96 427.71 C 472.82 426.94, 474.90 426.78, 478.11 426.74 C 481.32 426.71, 482.64 427.00, 485.01 427.55 C 487.38 428.10, 488.22 428.72, 489.97 429.49 C 491.72 430.25, 492.22 430.78, 493.74 431.36 C 495.26 431.95, 496.22 432.74, 497.57 432.41 C 498.92 432.07, 500.20 431.16, 500.50 429.69"
        style="stroke: black; fill: black;" />
    <path
        d="M 570.55,344.93 C 569.41 345.69, 568.90 346.65, 568.41 348.78 C 567.92 350.90, 567.90 352.21, 568.09 355.55 C 568.29 358.89, 568.88 361.17, 569.39 365.48 C 569.90 369.80, 570.20 372.16, 570.64 377.14 C 571.08 382.11, 571.22 384.87, 571.60 390.36 C 571.98 395.85, 572.12 398.72, 572.53 404.58 C 572.94 410.44, 573.10 413.61, 573.64 419.67 C 574.17 425.73, 574.47 428.88, 575.20 434.87 C 575.94 440.85, 576.36 443.89, 577.30 449.59 C 578.24 455.29, 578.75 458.17, 579.90 463.35 C 581.05 468.53, 581.64 470.98, 583.04 475.50 C 584.44 480.02, 585.17 482.15, 586.90 485.93 C 588.63 489.71, 589.55 491.47, 591.69 494.41 C 593.84 497.35, 594.92 498.72, 597.62 500.62 C 600.32 502.52, 601.98 503.26, 605.20 503.92 C 608.43 504.57, 610.28 504.57, 613.74 503.90 C 617.20 503.23, 618.92 502.37, 622.50 500.58 C 626.08 498.78, 627.96 497.58, 631.65 494.93 C 635.34 492.28, 637.23 490.64, 640.97 487.35 C 644.70 484.05, 646.68 482.20, 650.31 478.44 C 653.94 474.69, 655.80 472.62, 659.12 468.55 C 662.44 464.48, 664.08 462.28, 666.91 458.08 C 669.73 453.89, 671.12 451.73, 673.25 447.58 C 675.38 443.42, 676.27 441.28, 677.56 437.32 C 678.85 433.36, 679.41 431.50, 679.71 427.78 C 680.02 424.06, 680.02 421.99, 679.08 418.73 C 678.15 415.46, 677.15 413.90, 675.03 411.44 C 672.92 408.97, 671.51 407.81, 668.50 406.39 C 665.49 404.97, 663.50 404.48, 659.99 404.34 C 656.48 404.20, 654.52 404.59, 650.96 405.70 C 647.40 406.80, 645.50 407.67, 642.19 409.87 C 638.88 412.07, 637.17 413.51, 634.41 416.69 C 631.65 419.86, 630.38 421.81, 628.39 425.76 C 626.40 429.71, 625.48 431.97, 624.46 436.44 C 623.44 440.91, 623.03 443.43, 623.29 448.13 C 623.56 452.84, 624.02 455.41, 625.77 459.95 C 627.52 464.49, 628.77 466.75, 632.04 470.86 C 635.30 474.97, 637.35 476.99, 642.09 480.49 C 646.84 483.98, 649.75 485.62, 655.76 488.34 C 661.76 491.05, 665.22 492.13, 672.12 494.05 C 679.02 495.97, 682.94 496.77, 690.27 497.92 C 697.60 499.08, 701.96 499.30, 708.77 499.81 C 715.59 500.33, 719.23 500.46, 724.36 500.50 C 729.48 500.55, 732.39 500.74, 734.40 500.04 C 736.41 499.34, 736.40 497.70, 734.41 496.99 C 732.42 496.27, 729.53 496.70, 724.46 496.48 C 719.39 496.26, 715.78 496.31, 709.05 495.87 C 702.33 495.43, 698.01 495.36, 690.83 494.26 C 683.66 493.17, 679.82 492.33, 673.16 490.39 C 666.49 488.46, 663.16 487.29, 657.50 484.58 C 651.84 481.87, 649.15 480.20, 644.85 476.84 C 640.55 473.49, 638.81 471.55, 636.01 467.80 C 633.21 464.04, 632.25 462.06, 630.85 458.08 C 629.46 454.09, 629.14 451.94, 629.03 447.89 C 628.91 443.85, 629.31 441.69, 630.30 437.85 C 631.29 434.01, 632.16 432.02, 633.98 428.69 C 635.81 425.36, 637.00 423.74, 639.41 421.21 C 641.82 418.68, 643.30 417.61, 646.04 416.04 C 648.77 414.46, 650.38 413.97, 653.09 413.33 C 655.80 412.68, 657.17 412.68, 659.58 412.82 C 661.99 412.97, 663.20 413.30, 665.13 414.05 C 667.07 414.81, 667.93 415.20, 669.25 416.59 C 670.57 417.98, 670.98 418.80, 671.72 420.98 C 672.45 423.16, 672.90 424.56, 672.92 427.48 C 672.93 430.41, 672.71 432.09, 671.80 435.62 C 670.88 439.16, 670.18 441.25, 668.34 445.17 C 666.51 449.10, 665.26 451.21, 662.63 455.25 C 660.00 459.29, 658.41 461.45, 655.21 465.36 C 652.01 469.27, 650.18 471.25, 646.61 474.80 C 643.04 478.34, 641.04 480.09, 637.35 483.07 C 633.66 486.06, 631.73 487.52, 628.17 489.73 C 624.61 491.94, 622.71 492.83, 619.55 494.12 C 616.38 495.41, 614.91 495.75, 612.34 496.18 C 609.77 496.60, 608.79 496.62, 606.69 496.24 C 604.60 495.87, 603.80 495.50, 601.86 494.29 C 599.91 493.09, 598.93 492.40, 596.99 490.20 C 595.04 488.00, 593.95 486.57, 592.14 483.30 C 590.33 480.03, 589.47 478.06, 587.93 473.85 C 586.39 469.65, 585.72 467.27, 584.46 462.27 C 583.20 457.27, 582.64 454.43, 581.64 448.84 C 580.64 443.26, 580.20 440.25, 579.46 434.34 C 578.72 428.43, 578.43 425.31, 577.94 419.31 C 577.46 413.30, 577.33 410.15, 577.04 404.31 C 576.74 398.47, 576.63 395.61, 576.47 390.12 C 576.32 384.63, 576.29 381.86, 576.25 376.87 C 576.22 371.88, 576.18 369.49, 576.29 365.17 C 576.41 360.85, 576.86 358.55, 576.83 355.26 C 576.80 351.96, 576.70 350.74, 576.16 348.68 C 575.61 346.62, 575.24 345.72, 574.11 344.97 C 572.99 344.22, 571.69 344.17, 570.55 344.93"
        style="stroke: black; fill: black;" />
    <path
        d="M 899.01,358.71 C 897.92 359.54, 897.42 360.57, 897.09 362.73 C 896.77 364.90, 896.95 366.20, 897.39 369.53 C 897.84 372.86, 898.55 375.03, 899.33 379.36 C 900.10 383.70, 900.52 386.16, 901.27 391.21 C 902.02 396.27, 902.35 399.07, 903.08 404.64 C 903.81 410.21, 904.18 413.22, 904.94 419.06 C 905.70 424.91, 906.07 427.95, 906.86 433.88 C 907.65 439.82, 908.05 442.89, 908.89 448.75 C 909.73 454.61, 910.26 457.67, 911.08 463.18 C 911.90 468.70, 912.31 471.45, 913.00 476.32 C 913.70 481.19, 914.02 483.57, 914.55 487.53 C 915.08 491.48, 915.05 493.45, 915.65 496.11 C 916.26 498.76, 916.76 499.56, 917.57 500.81 C 918.38 502.07, 919.08 502.12, 919.70 502.39 C 920.32 502.67, 920.43 502.20, 920.67 502.20 C 920.92 502.21, 920.64 502.48, 920.93 502.43 C 921.23 502.38, 921.68 502.54, 922.15 501.96 C 922.62 501.37, 923.10 501.00, 923.27 499.50 C 923.45 498.00, 923.60 497.09, 923.03 494.46 C 922.45 491.83, 921.42 490.16, 920.40 486.36 C 919.38 482.56, 918.91 480.25, 917.94 475.47 C 916.97 470.69, 916.52 467.93, 915.57 462.46 C 914.61 456.99, 914.06 453.94, 913.18 448.11 C 912.30 442.29, 911.91 439.24, 911.15 433.32 C 910.39 427.41, 910.04 424.37, 909.39 418.53 C 908.73 412.68, 908.40 409.68, 907.87 404.10 C 907.35 398.51, 907.11 395.70, 906.76 390.61 C 906.41 385.52, 906.26 383.04, 906.10 378.64 C 905.95 374.24, 906.26 371.93, 906.00 368.62 C 905.74 365.30, 905.49 364.07, 904.80 362.06 C 904.12 360.05, 903.72 359.23, 902.56 358.56 C 901.40 357.89, 900.11 357.87, 899.01 358.71"
        style="stroke: black; fill: black;" />
    <path
        d="M 899.95,355.45 C 899.07 356.50, 898.74 357.67, 898.99 359.75 C 899.24 361.83, 899.56 363.39, 901.21 365.85 C 902.86 368.31, 904.47 369.48, 907.23 372.05 C 909.99 374.61, 911.66 376.05, 915.01 378.68 C 918.35 381.31, 920.20 382.65, 923.94 385.21 C 927.68 387.77, 929.64 389.11, 933.72 391.48 C 937.81 393.84, 939.99 395.04, 944.36 397.02 C 948.73 399.01, 951.03 399.92, 955.59 401.42 C 960.14 402.92, 962.51 403.60, 967.14 404.53 C 971.76 405.45, 974.14 405.80, 978.71 406.04 C 983.27 406.27, 985.59 406.17, 989.96 405.70 C 994.33 405.23, 996.53 404.80, 1000.55 403.69 C 1004.57 402.59, 1006.55 401.84, 1010.08 400.19 C 1013.60 398.54, 1015.19 397.51, 1018.20 395.44 C 1021.20 393.37, 1022.58 392.13, 1025.10 389.84 C 1027.62 387.55, 1028.98 386.23, 1030.79 383.98 C 1032.60 381.73, 1033.43 380.53, 1034.16 378.60 C 1034.90 376.67, 1035.02 375.46, 1034.47 374.32 C 1033.91 373.19, 1032.68 372.60, 1031.39 372.93 C 1030.09 373.27, 1028.83 373.88, 1027.99 376.02 C 1027.14 378.16, 1027.42 379.93, 1027.18 383.65 C 1026.93 387.36, 1026.95 389.77, 1026.76 394.59 C 1026.58 399.40, 1026.42 402.23, 1026.25 407.72 C 1026.08 413.21, 1025.93 416.15, 1025.92 422.02 C 1025.92 427.90, 1025.91 431.02, 1026.23 437.10 C 1026.54 443.17, 1026.76 446.37, 1027.50 452.40 C 1028.24 458.42, 1028.69 461.49, 1029.92 467.23 C 1031.16 472.97, 1031.95 475.85, 1033.69 481.10 C 1035.43 486.35, 1036.41 488.95, 1038.64 493.47 C 1040.87 497.98, 1042.41 500.19, 1044.83 503.68 C 1047.25 507.16, 1048.47 508.97, 1050.73 510.91 C 1052.99 512.85, 1054.66 513.30, 1056.12 513.38 C 1057.58 513.46, 1058.15 512.69, 1058.01 511.31 C 1057.87 509.93, 1057.10 508.71, 1055.42 506.47 C 1053.73 504.24, 1052.04 503.21, 1049.57 500.14 C 1047.11 497.07, 1045.40 495.23, 1043.08 491.12 C 1040.77 487.02, 1039.79 484.57, 1038.01 479.61 C 1036.22 474.64, 1035.43 471.84, 1034.17 466.30 C 1032.92 460.75, 1032.47 457.75, 1031.75 451.87 C 1031.02 445.99, 1030.81 442.85, 1030.57 436.89 C 1030.32 430.94, 1030.36 427.86, 1030.53 422.09 C 1030.70 416.32, 1030.91 413.40, 1031.42 408.04 C 1031.92 402.68, 1032.18 399.91, 1033.06 395.30 C 1033.95 390.69, 1034.95 388.54, 1035.83 384.99 C 1036.72 381.44, 1037.60 379.95, 1037.49 377.54 C 1037.38 375.14, 1036.55 374.17, 1035.27 372.97 C 1033.99 371.78, 1032.72 371.39, 1031.08 371.59 C 1029.45 371.79, 1028.56 372.56, 1027.10 373.98 C 1025.65 375.39, 1025.32 376.56, 1023.82 378.64 C 1022.31 380.72, 1021.54 382.15, 1019.58 384.38 C 1017.63 386.61, 1016.51 387.81, 1014.02 389.80 C 1011.54 391.78, 1010.21 392.72, 1007.17 394.31 C 1004.13 395.91, 1002.41 396.65, 998.82 397.76 C 995.24 398.88, 993.24 399.36, 989.26 399.89 C 985.29 400.42, 983.17 400.57, 978.95 400.42 C 974.74 400.27, 972.52 399.97, 968.19 399.14 C 963.86 398.31, 961.60 397.68, 957.29 396.26 C 952.98 394.84, 950.79 393.98, 946.65 392.05 C 942.52 390.12, 940.45 388.96, 936.62 386.61 C 932.79 384.26, 930.91 382.91, 927.50 380.29 C 924.09 377.67, 922.36 376.28, 919.55 373.50 C 916.74 370.73, 915.45 369.12, 913.45 366.42 C 911.45 363.72, 911.03 361.99, 909.55 360.00 C 908.08 358.01, 907.30 357.56, 906.07 356.46 C 904.85 355.36, 904.65 354.72, 903.43 354.51 C 902.20 354.31, 900.84 354.40, 899.95 355.45"
        style="stroke: black; fill: black;" />
    <path
        d="M 1138.61,449.30 C 1139.12 447.78, 1138.73 446.04, 1137.70 443.97 C 1136.67 441.89, 1135.69 440.75, 1133.44 438.93 C 1131.20 437.11, 1129.56 435.90, 1126.48 434.88 C 1123.40 433.85, 1121.59 433.77, 1118.05 433.79 C 1114.52 433.80, 1112.63 434.14, 1108.81 434.95 C 1104.99 435.77, 1102.92 436.34, 1098.97 437.86 C 1095.02 439.38, 1092.94 440.35, 1089.06 442.56 C 1085.18 444.76, 1083.10 446.03, 1079.58 448.89 C 1076.05 451.74, 1074.29 453.41, 1071.44 456.83 C 1068.59 460.25, 1067.26 462.18, 1065.34 466.00 C 1063.42 469.81, 1062.50 471.87, 1061.84 475.91 C 1061.18 479.95, 1061.17 482.24, 1062.03 486.20 C 1062.89 490.15, 1063.81 492.31, 1066.16 495.69 C 1068.51 499.07, 1070.13 500.62, 1073.77 503.09 C 1077.41 505.56, 1079.68 506.56, 1084.37 508.04 C 1089.05 509.51, 1091.80 510.03, 1097.18 510.46 C 1102.57 510.88, 1105.58 510.75, 1111.30 510.17 C 1117.01 509.59, 1120.11 509.04, 1125.75 507.56 C 1131.38 506.08, 1134.29 505.04, 1139.47 502.76 C 1144.66 500.47, 1147.30 499.03, 1151.66 496.13 C 1156.03 493.23, 1158.12 491.64, 1161.30 488.26 C 1164.48 484.88, 1165.80 482.96, 1167.55 479.22 C 1169.30 475.48, 1169.85 473.39, 1170.06 469.57 C 1170.28 465.75, 1169.88 463.63, 1168.62 460.11 C 1167.35 456.59, 1166.11 454.90, 1163.76 451.97 C 1161.41 449.04, 1159.81 447.66, 1156.85 445.47 C 1153.89 443.28, 1152.10 442.33, 1148.97 441.02 C 1145.83 439.71, 1143.86 439.16, 1141.18 438.91 C 1138.49 438.67, 1137.24 439.19, 1135.54 439.79 C 1133.84 440.39, 1133.19 441.00, 1132.69 441.90 C 1132.19 442.81, 1132.47 443.55, 1133.03 444.30 C 1133.59 445.06, 1134.18 445.04, 1135.49 445.66 C 1136.80 446.28, 1137.49 446.76, 1139.58 447.41 C 1141.66 448.07, 1143.36 448.03, 1145.92 448.92 C 1148.49 449.80, 1149.98 450.27, 1152.40 451.84 C 1154.82 453.41, 1156.10 454.61, 1158.01 456.78 C 1159.92 458.95, 1160.86 460.18, 1161.95 462.70 C 1163.03 465.22, 1163.40 466.56, 1163.42 469.38 C 1163.44 472.20, 1163.29 473.76, 1162.07 476.82 C 1160.84 479.87, 1159.94 481.60, 1157.31 484.66 C 1154.68 487.71, 1152.84 489.31, 1148.90 492.08 C 1144.95 494.85, 1142.44 496.31, 1137.58 498.51 C 1132.71 500.72, 1129.93 501.72, 1124.58 503.10 C 1119.24 504.48, 1116.24 504.95, 1110.86 505.40 C 1105.47 505.84, 1102.61 505.86, 1097.67 505.32 C 1092.73 504.77, 1090.23 504.14, 1086.16 502.68 C 1082.08 501.23, 1080.22 500.18, 1077.30 498.05 C 1074.38 495.92, 1073.31 494.67, 1071.55 492.02 C 1069.78 489.36, 1069.14 487.80, 1068.47 484.78 C 1067.79 481.75, 1067.69 480.12, 1068.18 476.91 C 1068.66 473.71, 1069.31 472.00, 1070.89 468.75 C 1072.47 465.50, 1073.60 463.71, 1076.09 460.68 C 1078.58 457.64, 1080.15 456.12, 1083.34 453.59 C 1086.53 451.06, 1088.48 449.91, 1092.05 448.03 C 1095.63 446.16, 1097.62 445.37, 1101.22 444.21 C 1104.82 443.06, 1106.77 442.67, 1110.07 442.26 C 1113.36 441.84, 1115.07 441.88, 1117.69 442.16 C 1120.31 442.44, 1121.19 442.77, 1123.16 443.66 C 1125.14 444.54, 1125.97 445.43, 1127.58 446.57 C 1129.19 447.71, 1129.70 448.35, 1131.21 449.35 C 1132.72 450.34, 1133.64 451.54, 1135.12 451.53 C 1136.60 451.52, 1138.09 450.81, 1138.61 449.30"
        style="stroke: black; fill: black;" />
    <path
        d="M 1190.34,451.34 C 1189.12 451.83, 1188.46 452.59, 1187.68 454.33 C 1186.90 456.08, 1186.52 457.39, 1186.47 460.06 C 1186.42 462.73, 1186.92 464.46, 1187.43 467.70 C 1187.94 470.93, 1188.45 472.83, 1189.01 476.26 C 1189.57 479.68, 1189.87 481.43, 1190.23 484.81 C 1190.59 488.19, 1190.41 490.10, 1190.82 493.15 C 1191.24 496.19, 1191.28 498.15, 1192.33 500.04 C 1193.38 501.94, 1194.68 502.55, 1196.07 502.61 C 1197.47 502.67, 1198.50 502.04, 1199.30 500.35 C 1200.11 498.67, 1200.55 497.04, 1200.09 494.17 C 1199.63 491.30, 1198.21 489.47, 1196.99 486.00 C 1195.78 482.54, 1194.98 480.48, 1194.03 476.84 C 1193.07 473.21, 1192.73 471.27, 1192.21 467.83 C 1191.70 464.39, 1191.48 462.72, 1191.45 459.64 C 1191.42 456.55, 1191.59 455.00, 1192.05 452.40 C 1192.52 449.80, 1192.80 448.72, 1193.78 446.64 C 1194.77 444.56, 1195.30 443.70, 1196.96 441.99 C 1198.62 440.29, 1199.55 439.49, 1202.07 438.12 C 1204.60 436.75, 1206.17 436.10, 1209.58 435.15 C 1213.00 434.21, 1215.03 433.76, 1219.15 433.40 C 1223.28 433.05, 1225.60 433.08, 1230.21 433.37 C 1234.82 433.66, 1237.83 434.22, 1242.18 434.85 C 1246.53 435.47, 1248.62 436.13, 1251.96 436.52 C 1255.30 436.90, 1257.34 437.35, 1258.89 436.79 C 1260.43 436.23, 1260.82 434.98, 1259.69 433.72 C 1258.55 432.46, 1256.53 431.49, 1253.20 430.50 C 1249.87 429.51, 1247.55 429.37, 1243.03 428.77 C 1238.50 428.16, 1235.44 427.79, 1230.58 427.48 C 1225.73 427.17, 1223.28 427.03, 1218.76 427.22 C 1214.24 427.41, 1212.01 427.61, 1207.99 428.43 C 1203.97 429.24, 1202.01 429.72, 1198.66 431.29 C 1195.31 432.85, 1193.71 433.87, 1191.26 436.26 C 1188.80 438.64, 1187.78 440.21, 1186.40 443.20 C 1185.02 446.19, 1184.80 447.88, 1184.35 451.21 C 1183.90 454.55, 1183.97 456.34, 1184.15 459.87 C 1184.33 463.40, 1184.71 465.15, 1185.24 468.85 C 1185.77 472.55, 1186.16 474.51, 1186.79 478.37 C 1187.42 482.23, 1187.80 484.46, 1188.37 488.15 C 1188.94 491.85, 1188.68 494.05, 1189.66 496.83 C 1190.63 499.61, 1191.66 500.89, 1193.26 502.04 C 1194.85 503.20, 1196.25 503.26, 1197.64 502.60 C 1199.03 501.94, 1199.83 500.87, 1200.21 498.73 C 1200.59 496.59, 1199.96 494.89, 1199.53 491.91 C 1199.10 488.94, 1198.51 487.16, 1198.04 483.84 C 1197.56 480.52, 1197.38 478.71, 1197.16 475.32 C 1196.94 471.93, 1196.96 470.03, 1196.93 466.89 C 1196.89 463.74, 1197.26 462.04, 1196.98 459.60 C 1196.71 457.16, 1196.20 456.22, 1195.57 454.68 C 1194.93 453.13, 1194.86 452.55, 1193.82 451.89 C 1192.77 451.22, 1191.57 450.85, 1190.34 451.34"
        style="stroke: black; fill: black;" />
    <path
        d="M 1329.27,458.87 C 1330.04 457.43, 1329.93 455.64, 1329.35 453.26 C 1328.78 450.88, 1328.08 449.43, 1326.41 446.95 C 1324.74 444.47, 1323.49 442.90, 1320.99 440.85 C 1318.49 438.80, 1316.95 438.04, 1313.93 436.69 C 1310.90 435.34, 1309.29 434.83, 1305.87 434.11 C 1302.44 433.38, 1300.51 433.10, 1296.81 433.07 C 1293.11 433.04, 1291.12 433.18, 1287.36 433.97 C 1283.61 434.76, 1281.62 435.35, 1278.02 437.01 C 1274.42 438.66, 1272.51 439.78, 1269.38 442.25 C 1266.24 444.71, 1264.75 446.24, 1262.36 449.33 C 1259.96 452.41, 1258.85 454.18, 1257.40 457.67 C 1255.96 461.17, 1255.33 463.17, 1255.13 466.81 C 1254.93 470.44, 1255.16 472.48, 1256.40 475.85 C 1257.63 479.22, 1258.80 480.96, 1261.31 483.65 C 1263.82 486.34, 1265.59 487.56, 1268.97 489.32 C 1272.35 491.09, 1274.28 491.64, 1278.20 492.46 C 1282.12 493.27, 1284.36 493.51, 1288.56 493.41 C 1292.77 493.31, 1295.09 492.99, 1299.21 491.94 C 1303.33 490.90, 1305.41 489.96, 1309.18 488.18 C 1312.94 486.40, 1314.85 485.37, 1318.03 483.04 C 1321.21 480.72, 1322.68 479.26, 1325.08 476.56 C 1327.48 473.85, 1328.64 472.44, 1330.04 469.52 C 1331.43 466.60, 1331.61 464.87, 1332.05 461.98 C 1332.49 459.08, 1332.80 457.50, 1332.24 455.04 C 1331.69 452.58, 1330.91 450.85, 1329.26 449.68 C 1327.62 448.51, 1325.77 448.45, 1324.02 449.17 C 1322.26 449.90, 1321.07 450.94, 1320.49 453.30 C 1319.91 455.65, 1320.32 457.29, 1321.11 460.95 C 1321.89 464.60, 1322.94 466.95, 1324.42 471.57 C 1325.89 476.20, 1326.72 478.81, 1328.48 484.08 C 1330.24 489.34, 1331.27 492.14, 1333.22 497.91 C 1335.16 503.68, 1336.25 506.79, 1338.22 512.93 C 1340.18 519.07, 1341.26 522.30, 1343.05 528.61 C 1344.84 534.92, 1345.78 538.21, 1347.18 544.47 C 1348.59 550.73, 1349.27 553.96, 1350.06 559.92 C 1350.85 565.88, 1351.11 568.83, 1351.13 574.26 C 1351.16 579.69, 1350.95 582.37, 1350.17 587.06 C 1349.40 591.76, 1348.79 593.95, 1347.25 597.73 C 1345.72 601.52, 1344.67 603.20, 1342.50 605.98 C 1340.33 608.77, 1339.16 609.89, 1336.39 611.67 C 1333.62 613.45, 1332.10 614.04, 1328.65 614.88 C 1325.19 615.71, 1323.24 615.95, 1319.11 615.84 C 1314.98 615.73, 1312.65 615.41, 1308.01 614.32 C 1303.36 613.23, 1300.73 612.39, 1295.88 610.39 C 1291.03 608.39, 1288.46 607.10, 1283.77 604.33 C 1279.09 601.57, 1276.67 599.96, 1272.45 596.54 C 1268.23 593.13, 1266.09 591.19, 1262.67 587.26 C 1259.25 583.34, 1257.69 581.19, 1255.36 576.93 C 1253.02 572.67, 1252.11 570.47, 1251.00 565.96 C 1249.89 561.45, 1249.60 559.12, 1249.81 554.39 C 1250.02 549.66, 1250.49 547.15, 1252.04 542.31 C 1253.58 537.47, 1254.78 534.91, 1257.54 530.19 C 1260.30 525.47, 1262.01 523.04, 1265.85 518.70 C 1269.68 514.37, 1272.55 512.10, 1276.71 508.52 C 1280.88 504.94, 1283.38 503.45, 1286.67 500.80 C 1289.96 498.16, 1292.21 496.93, 1293.16 495.31 C 1294.10 493.69, 1293.27 492.40, 1291.38 492.71 C 1289.50 493.02, 1287.32 494.43, 1283.75 496.86 C 1280.18 499.30, 1277.80 501.12, 1273.54 504.89 C 1269.28 508.66, 1266.43 511.13, 1262.45 515.72 C 1258.46 520.32, 1256.60 522.85, 1253.62 527.88 C 1250.64 532.90, 1249.26 535.59, 1247.53 540.85 C 1245.80 546.11, 1245.21 548.91, 1244.97 554.17 C 1244.72 559.42, 1245.06 562.11, 1246.30 567.12 C 1247.55 572.13, 1248.62 574.58, 1251.19 579.23 C 1253.77 583.87, 1255.50 586.15, 1259.18 590.33 C 1262.85 594.50, 1265.12 596.51, 1269.55 600.11 C 1273.99 603.72, 1276.48 605.39, 1281.36 608.36 C 1286.24 611.33, 1288.87 612.72, 1293.94 614.95 C 1299.01 617.18, 1301.72 618.17, 1306.70 619.51 C 1311.69 620.84, 1314.20 621.36, 1318.86 621.62 C 1323.53 621.88, 1325.87 621.79, 1330.05 620.82 C 1334.22 619.86, 1336.33 619.07, 1339.75 616.80 C 1343.17 614.53, 1344.65 612.90, 1347.15 609.47 C 1349.64 606.03, 1350.66 603.96, 1352.21 599.61 C 1353.76 595.27, 1354.24 592.84, 1354.90 587.75 C 1355.55 582.67, 1355.65 579.87, 1355.50 574.19 C 1355.34 568.51, 1355.00 565.48, 1354.11 559.36 C 1353.22 553.24, 1352.49 549.96, 1351.04 543.60 C 1349.59 537.23, 1348.64 533.92, 1346.86 527.54 C 1345.08 521.16, 1344.02 517.90, 1342.14 511.70 C 1340.25 505.51, 1339.19 502.37, 1337.44 496.56 C 1335.69 490.75, 1334.73 487.93, 1333.38 482.63 C 1332.03 477.34, 1331.42 474.70, 1330.69 470.08 C 1329.96 465.45, 1330.13 462.94, 1329.74 459.51 C 1329.35 456.09, 1329.49 454.67, 1328.73 452.95 C 1327.98 451.23, 1327.02 450.99, 1325.97 450.93 C 1324.92 450.86, 1323.98 451.53, 1323.49 452.63 C 1323.01 453.73, 1323.45 454.76, 1323.55 456.41 C 1323.64 458.07, 1324.15 458.97, 1323.96 460.91 C 1323.76 462.86, 1323.48 463.96, 1322.56 466.15 C 1321.65 468.33, 1321.14 469.56, 1319.40 471.85 C 1317.67 474.15, 1316.50 475.52, 1313.89 477.61 C 1311.27 479.69, 1309.59 480.69, 1306.34 482.29 C 1303.09 483.89, 1301.19 484.71, 1297.62 485.59 C 1294.05 486.47, 1292.05 486.69, 1288.48 486.69 C 1284.91 486.68, 1282.95 486.35, 1279.76 485.56 C 1276.56 484.77, 1275.07 484.18, 1272.51 482.75 C 1269.95 481.31, 1268.75 480.30, 1266.98 478.39 C 1265.20 476.47, 1264.50 475.39, 1263.65 473.15 C 1262.80 470.91, 1262.61 469.73, 1262.71 467.18 C 1262.82 464.63, 1263.14 463.12, 1264.19 460.41 C 1265.24 457.70, 1266.08 456.16, 1267.98 453.63 C 1269.88 451.10, 1271.12 449.79, 1273.71 447.75 C 1276.30 445.72, 1277.92 444.78, 1280.92 443.46 C 1283.93 442.14, 1285.61 441.70, 1288.74 441.17 C 1291.87 440.65, 1293.54 440.65, 1296.59 440.82 C 1299.63 440.99, 1301.28 441.29, 1303.98 442.02 C 1306.69 442.75, 1307.97 443.30, 1310.10 444.48 C 1312.23 445.67, 1313.00 446.30, 1314.64 447.95 C 1316.29 449.60, 1316.90 450.87, 1318.31 452.72 C 1319.72 454.57, 1320.25 455.64, 1321.69 457.18 C 1323.14 458.73, 1324.00 460.11, 1325.52 460.45 C 1327.03 460.79, 1328.50 460.31, 1329.27 458.87"
        style="stroke: black; fill: black;" />
    <path
        d="M 1425.69,453.65 C 1426.34 452.30, 1426.30 450.86, 1425.61 448.78 C 1424.91 446.71, 1424.04 445.32, 1422.19 443.29 C 1420.35 441.26, 1418.97 440.23, 1416.40 438.64 C 1413.83 437.05, 1412.45 436.33, 1409.34 435.34 C 1406.23 434.35, 1404.40 434.06, 1400.85 433.71 C 1397.30 433.35, 1395.40 433.27, 1391.59 433.57 C 1387.78 433.88, 1385.74 434.21, 1381.79 435.22 C 1377.84 436.23, 1375.74 436.91, 1371.83 438.63 C 1367.93 440.35, 1365.88 441.40, 1362.27 443.83 C 1358.66 446.26, 1356.80 447.70, 1353.78 450.79 C 1350.76 453.88, 1349.32 455.68, 1347.19 459.27 C 1345.05 462.85, 1344.12 464.86, 1343.12 468.72 C 1342.12 472.57, 1341.87 474.68, 1342.17 478.53 C 1342.48 482.39, 1342.97 484.50, 1344.64 487.98 C 1346.31 491.46, 1347.60 493.18, 1350.51 495.92 C 1353.42 498.67, 1355.35 499.89, 1359.19 501.71 C 1363.02 503.52, 1365.24 504.23, 1369.68 505.01 C 1374.12 505.78, 1376.72 505.79, 1381.38 505.58 C 1386.04 505.37, 1388.47 504.99, 1392.98 503.95 C 1397.49 502.92, 1399.80 502.14, 1403.95 500.41 C 1408.10 498.68, 1410.23 497.66, 1413.72 495.31 C 1417.21 492.97, 1418.78 491.58, 1421.40 488.68 C 1424.01 485.79, 1425.14 484.13, 1426.78 480.83 C 1428.43 477.52, 1429.00 475.66, 1429.60 472.17 C 1430.21 468.67, 1430.06 466.76, 1429.81 463.34 C 1429.56 459.92, 1429.34 458.06, 1428.35 455.05 C 1427.36 452.04, 1426.61 450.09, 1424.86 448.30 C 1423.11 446.51, 1421.52 445.98, 1419.61 446.11 C 1417.69 446.24, 1416.44 447.12, 1415.28 448.96 C 1414.12 450.80, 1413.43 452.43, 1413.80 455.30 C 1414.17 458.17, 1415.48 459.94, 1417.14 463.30 C 1418.80 466.65, 1419.97 468.56, 1422.10 472.08 C 1424.23 475.60, 1425.29 477.46, 1427.78 480.90 C 1430.27 484.34, 1431.67 486.09, 1434.55 489.30 C 1437.43 492.51, 1439.02 494.14, 1442.18 496.94 C 1445.34 499.74, 1447.02 501.12, 1450.35 503.29 C 1453.68 505.45, 1455.46 506.44, 1458.82 507.75 C 1462.19 509.06, 1464.12 509.91, 1467.16 509.83 C 1470.19 509.75, 1472.70 508.60, 1474.00 507.35 C 1475.31 506.11, 1474.91 504.63, 1473.67 503.61 C 1472.42 502.60, 1470.26 502.83, 1467.79 502.29 C 1465.32 501.75, 1464.10 501.85, 1461.32 500.91 C 1458.53 499.98, 1456.85 499.37, 1453.85 497.62 C 1450.86 495.87, 1449.26 494.66, 1446.33 492.17 C 1443.40 489.67, 1441.84 488.14, 1439.20 485.15 C 1436.55 482.17, 1435.24 480.53, 1433.11 477.24 C 1430.98 473.95, 1430.06 472.18, 1428.55 468.72 C 1427.04 465.26, 1426.51 463.13, 1425.57 459.94 C 1424.62 456.75, 1424.71 454.94, 1423.82 452.79 C 1422.94 450.64, 1422.20 449.98, 1421.14 449.18 C 1420.07 448.38, 1419.25 448.15, 1418.51 448.77 C 1417.77 449.39, 1417.24 450.42, 1417.45 452.28 C 1417.66 454.14, 1418.69 455.65, 1419.56 458.07 C 1420.43 460.48, 1421.29 461.74, 1421.80 464.35 C 1422.30 466.95, 1422.37 468.38, 1422.09 471.08 C 1421.80 473.77, 1421.49 475.17, 1420.35 477.82 C 1419.21 480.48, 1418.43 481.88, 1416.39 484.36 C 1414.36 486.83, 1413.13 488.09, 1410.18 490.21 C 1407.23 492.33, 1405.33 493.36, 1401.63 494.97 C 1397.93 496.58, 1395.77 497.34, 1391.68 498.27 C 1387.58 499.21, 1385.33 499.52, 1381.16 499.64 C 1376.99 499.77, 1374.63 499.65, 1370.82 498.89 C 1367.00 498.12, 1365.19 497.40, 1362.08 495.81 C 1358.98 494.22, 1357.51 493.11, 1355.29 490.94 C 1353.06 488.76, 1352.21 487.55, 1350.97 484.95 C 1349.73 482.35, 1349.35 480.87, 1349.08 477.95 C 1348.80 475.02, 1348.87 473.43, 1349.60 470.34 C 1350.33 467.25, 1351.01 465.55, 1352.74 462.52 C 1354.48 459.48, 1355.68 457.86, 1358.28 455.17 C 1360.89 452.48, 1362.54 451.18, 1365.75 449.06 C 1368.97 446.95, 1370.85 446.03, 1374.37 444.59 C 1377.88 443.15, 1379.82 442.60, 1383.33 441.88 C 1386.85 441.16, 1388.66 441.03, 1391.94 441.00 C 1395.22 440.97, 1396.85 441.19, 1399.72 441.74 C 1402.59 442.29, 1404.03 442.79, 1406.29 443.75 C 1408.55 444.71, 1409.31 445.21, 1411.03 446.54 C 1412.74 447.86, 1413.35 448.94, 1414.86 450.38 C 1416.37 451.82, 1417.09 452.70, 1418.58 453.73 C 1420.07 454.77, 1420.91 455.59, 1422.33 455.57 C 1423.75 455.55, 1425.03 455.01, 1425.69 453.65"
        style="stroke: black; fill: black;" />
    <path
        d="M 1485.76,443.74 C 1484.67 444.23, 1484.34 444.63, 1483.62 446.06 C 1482.89 447.48, 1482.35 448.47, 1482.13 450.87 C 1481.92 453.27, 1482.23 454.94, 1482.54 458.05 C 1482.85 461.16, 1483.34 463.00, 1483.69 466.42 C 1484.04 469.83, 1484.10 471.62, 1484.31 475.12 C 1484.52 478.61, 1484.59 480.51, 1484.76 483.91 C 1484.94 487.30, 1484.95 489.13, 1485.20 492.10 C 1485.44 495.07, 1485.45 496.56, 1485.99 498.74 C 1486.54 500.91, 1486.85 501.93, 1487.92 502.97 C 1488.99 504.01, 1490.01 504.21, 1491.37 503.94 C 1492.73 503.67, 1493.75 503.12, 1494.72 501.64 C 1495.70 500.15, 1496.15 499.00, 1496.25 496.51 C 1496.36 494.02, 1495.53 492.36, 1495.25 489.20 C 1494.96 486.04, 1494.74 484.15, 1494.83 480.71 C 1494.91 477.27, 1495.02 475.48, 1495.68 472.00 C 1496.34 468.52, 1496.80 466.73, 1498.11 463.31 C 1499.42 459.89, 1500.28 458.10, 1502.23 454.91 C 1504.18 451.72, 1505.25 450.10, 1507.88 447.37 C 1510.50 444.64, 1512.09 443.37, 1515.35 441.26 C 1518.61 439.15, 1520.52 438.15, 1524.18 436.82 C 1527.84 435.50, 1529.86 435.03, 1533.65 434.62 C 1537.43 434.22, 1539.45 434.25, 1543.12 434.79 C 1546.79 435.34, 1548.61 435.86, 1551.99 437.36 C 1555.37 438.87, 1557.07 439.91, 1560.01 442.33 C 1562.96 444.75, 1564.28 446.19, 1566.70 449.47 C 1569.12 452.75, 1570.18 454.70, 1572.11 458.72 C 1574.03 462.74, 1574.92 465.07, 1576.33 469.58 C 1577.75 474.09, 1578.27 476.55, 1579.19 481.26 C 1580.11 485.97, 1580.32 488.49, 1580.94 493.11 C 1581.56 497.73, 1581.91 500.25, 1582.29 504.35 C 1582.68 508.45, 1582.43 510.63, 1582.88 513.61 C 1583.34 516.59, 1583.79 517.51, 1584.56 519.23 C 1585.33 520.96, 1585.84 521.72, 1586.73 522.22 C 1587.63 522.72, 1588.40 522.50, 1589.04 521.75 C 1589.67 520.99, 1589.65 520.28, 1589.91 518.46 C 1590.17 516.65, 1590.64 515.66, 1590.34 512.66 C 1590.03 509.66, 1589.19 507.54, 1588.40 503.46 C 1587.60 499.39, 1587.17 496.93, 1586.37 492.28 C 1585.57 487.63, 1585.38 485.08, 1584.40 480.23 C 1583.42 475.37, 1582.93 472.76, 1581.48 467.99 C 1580.03 463.22, 1579.16 460.74, 1577.14 456.36 C 1575.12 451.98, 1574.05 449.79, 1571.39 446.07 C 1568.73 442.34, 1567.23 440.58, 1563.85 437.73 C 1560.46 434.88, 1558.44 433.61, 1554.48 431.82 C 1550.51 430.03, 1548.32 429.43, 1544.02 428.78 C 1539.73 428.14, 1537.38 428.12, 1533.00 428.59 C 1528.62 429.06, 1526.31 429.61, 1522.12 431.12 C 1517.93 432.63, 1515.80 433.75, 1512.06 436.13 C 1508.32 438.51, 1506.48 439.96, 1503.44 443.03 C 1500.39 446.11, 1499.12 447.95, 1496.83 451.52 C 1494.54 455.08, 1493.58 457.06, 1491.99 460.85 C 1490.40 464.64, 1489.87 466.66, 1488.89 470.47 C 1487.91 474.29, 1487.73 476.23, 1487.09 479.93 C 1486.46 483.62, 1486.17 485.57, 1485.70 488.94 C 1485.24 492.31, 1484.55 494.14, 1484.77 496.78 C 1485.00 499.41, 1485.66 500.70, 1486.81 502.12 C 1487.97 503.55, 1489.21 503.89, 1490.56 503.91 C 1491.91 503.92, 1492.79 503.45, 1493.56 502.22 C 1494.33 500.99, 1494.38 499.97, 1494.41 497.76 C 1494.45 495.56, 1494.13 494.07, 1493.74 491.18 C 1493.36 488.29, 1492.84 486.57, 1492.49 483.29 C 1492.13 480.01, 1492.06 478.21, 1491.97 474.77 C 1491.87 471.34, 1491.90 469.52, 1492.02 466.13 C 1492.13 462.74, 1492.40 460.87, 1492.56 457.81 C 1492.72 454.74, 1493.07 453.17, 1492.83 450.80 C 1492.58 448.44, 1492.10 447.41, 1491.34 445.98 C 1490.59 444.55, 1490.17 444.08, 1489.06 443.64 C 1487.94 443.19, 1486.84 443.26, 1485.76 443.74"
        style="stroke: black; fill: black;" />
</svg>